<svg viewBox="0 0 800 800" xmlns="http://www.w3.org/2000/svg" fill-rule="evenodd" clip-rule="evenodd" stroke-linecap="round" stroke-linejoin="round" stroke-miterlimit="1.5">
  <path d="M405.259 595.003l-49.043-29.321-49.07 29.321M220.006 649.277l-49.043-29.321-49.07 29.321" fill="none" stroke="#8c8c8c" stroke-width="5"/>
  <path d="M103.05 550.489v-80.371" fill="none" stroke="#00ff01" stroke-width="5"/>
  <path d="M201.163 550.489v-80.371" fill="none" stroke="#0100ff" stroke-width="5"/>
  <path d="M688.678 494.099H513.702M201.163 491.896l-49.043-29.321-49.07 29.321" fill="none" stroke="#8c8c8c" stroke-width="5"/>
  <path d="M201.163 529.68l-49.043-67.105-49.07 66.675M688.678 537.787H513.702M688.678 580.904H513.702M688.678 625.443H513.702" fill="none" stroke="#8c8c8c" stroke-width="5"/>
  <path d="M35.058-15.005c0 24.573-13.25 44.488-35.044 54.775" fill="none" stroke="#000" stroke-width="5.03" stroke-dasharray="5.03,7.54,0,0" transform="matrix(-.98915 0 0 -.99985 565.678 276.071)"/>
  <path d="M35.058-15.005c0 24.573-13.25 44.488-35.044 54.775" fill="none" stroke="#000" stroke-width="1.24" stroke-dasharray="1.24,1.86,0,0" transform="matrix(-3.85485 0 0 -4.20219 566.314 286.371)"/>
  <path d="M35.058-15.005c0 24.573-13.25 44.488-35.044 54.775" fill="none" stroke="#000" stroke-width="2" stroke-dasharray="2,3,0,0" transform="matrix(-2.41458 0 0 -2.57468 565.697 282.421)"/>
  <path d="M513.701 658.677V461.881" fill="none" stroke="red" stroke-width="5"/>
  <path d="M688.677 658.677V461.881" fill="none" stroke="#0100ff" stroke-width="5"/>
  <path d="M600.875 658.677V461.881" fill="none" stroke="#00ff01" stroke-width="5"/>
  <path d="M35.058-15.005c0 24.573-13.25 44.488-35.044 54.775" fill="none" stroke="#000" stroke-width="5.03" stroke-dasharray="5.03,7.54,0,0" transform="matrix(.98915 0 0 -.99985 566.069 276.916)"/>
  <path d="M35.058-15.005c0 24.573-13.25 44.488-35.044 54.775" fill="none" stroke="#000" stroke-width="1.24" stroke-dasharray="1.24,1.86,0,0" transform="matrix(3.85485 0 0 -4.20219 565.433 287.216)"/>
  <path d="M35.058-15.005c0 24.573-13.25 44.488-35.044 54.775" fill="none" stroke="#000" stroke-width="2" stroke-dasharray="2,3,0,0" transform="matrix(2.41458 0 0 -2.57468 566.05 283.266)"/>
  <path d="M566.247 271.843V75.047" fill="none" stroke="#00ff01" stroke-width="5"/>
  <path d="M566.248 271.846l-170.43 98.398" fill="none" stroke="red" stroke-width="5"/>
  <path d="M566.25 271.842l170.43 98.398" fill="none" stroke="#0100ff" stroke-width="5"/>
  <path d="M86.108 105.974c38.512 2.213 70.724 5.51 94.4 11.693" fill="none" stroke="red" stroke-width="5"/>
  <path d="M180.509 117.667c20.247 5.288 34.25 12.686 40.613 23.32 9.398 15.712 4.197 45.922-8.304 85.57" fill="none" stroke="#00ff01" stroke-width="5"/>
  <path d="M212.818 226.558c-10.302 32.68-25.564 71.77-41.696 114.444M86.108 105.988c-6.332 26.683-11.318 48.27-12.797 68.112" fill="none" stroke="#0100ff" stroke-width="5"/>
  <path d="M73.311 174.1c-1.738 23.304 1.362 44.199 12.797 68.114 6.968 14.573 22.056 33.401 39.056 52.067" fill="none" stroke="#00ff01" stroke-width="5"/>
  <path d="M125.164 294.281c15.276 16.773 32.097 33.415 45.957 46.72M156.023 202.086c10.276-10.036 18.423-26.863 30.198-40.409" fill="none" stroke="red" stroke-width="5"/>
  <path d="M186.221 161.677c8.804-10.128 19.635-18.423 34.9-20.675 11.027-1.627 24.281-.227 38.611 2.757 9.452 1.969 19.372 4.627 29.428 7.561" fill="none" stroke="#00ff01" stroke-width="5"/>
  <path d="M289.16 151.32c25.304 7.382 51.476 16.51 73.247 20.793" fill="none" stroke="#0100ff" stroke-width="5"/>
  <circle cx="220.792" cy="124.57" r="14.986" fill="none" stroke="#000" stroke-width="2" transform="translate(.315 16.418)"/>
  <circle cx="220.792" cy="124.57" r="14.986" transform="matrix(.66728 0 0 .66728 73.792 57.88)"/>
  <circle cx="220.792" cy="124.57" r="14.986" fill="none" stroke="#000" stroke-width="2" transform="translate(-64.77 77.516)"/>
  <circle cx="220.792" cy="124.57" r="14.986" transform="matrix(.66728 0 0 .66728 8.707 118.977)"/>
  <circle cx="220.792" cy="124.57" r="14.986" fill="none" stroke="#000" stroke-width="2" transform="translate(-134.698 117.63)"/>
  <circle cx="220.792" cy="124.57" r="14.986" transform="matrix(.66728 0 0 .66728 -61.222 159.092)"/>
  <circle cx="220.792" cy="124.57" r="14.986" fill="none" stroke="#000" stroke-width="2" transform="translate(141.615 47.544)"/>
  <circle cx="220.792" cy="124.57" r="14.986" transform="matrix(.66728 0 0 .66728 215.092 89.005)"/>
  <circle cx="220.792" cy="124.57" r="14.986" fill="none" stroke="#000" stroke-width="2" transform="translate(-134.698 -18.595)"/>
  <circle cx="220.792" cy="124.57" r="14.986" transform="matrix(.66728 0 0 .66728 -61.222 22.866)"/>
  <circle cx="220.792" cy="124.57" r="14.986" fill="none" stroke="#000" stroke-width="2" transform="translate(-49.685 216.419)"/>
  <circle cx="220.792" cy="124.57" r="14.986" transform="matrix(.66728 0 0 .66728 23.792 257.88)"/>
  <circle cx="220.792" cy="124.57" r="14.986" fill="none" stroke="#000" stroke-width="2" transform="translate(430.67 196.472)"/>
  <circle cx="220.792" cy="124.57" r="14.986" transform="matrix(.66728 0 0 .66728 504.147 237.933)"/>
  <circle cx="220.792" cy="124.57" r="14.986" fill="none" stroke="#000" stroke-width="2" transform="translate(260.24 196.472)"/>
  <circle cx="220.792" cy="124.57" r="14.986" transform="matrix(.66728 0 0 .66728 333.717 237.933)"/>
  <circle cx="220.792" cy="124.57" r="14.986" fill="none" stroke="#000" stroke-width="2" transform="translate(345.455 55.458)"/>
  <circle cx="220.792" cy="124.57" r="14.986" transform="matrix(.66728 0 0 .66728 418.932 96.919)"/>
  <circle cx="220.792" cy="124.57" r="14.986" fill="none" stroke="#000" stroke-width="2" transform="translate(310.719 166.5)"/>
  <circle cx="220.792" cy="124.57" r="14.986" transform="matrix(.66728 0 0 .66728 384.196 207.96)"/>
  <circle cx="220.792" cy="124.57" r="14.986" fill="none" stroke="#000" stroke-width="2" transform="translate(379.321 166.5)"/>
  <circle cx="220.792" cy="124.57" r="14.986" transform="matrix(.66728 0 0 .66728 452.798 207.96)"/>
  <circle cx="220.792" cy="124.57" r="14.986" fill="none" stroke="#000" stroke-width="2" transform="translate(345.455 111.725)"/>
  <circle cx="220.792" cy="124.57" r="14.986" transform="matrix(.66728 0 0 .66728 418.932 153.186)"/>
  <circle cx="220.792" cy="124.57" r="14.986" fill="none" stroke="#000" stroke-width="2" transform="translate(210.363 224.844)"/>
  <circle cx="220.792" cy="124.57" r="14.986" transform="matrix(.66728 0 0 .66728 283.84 266.305)"/>
  <circle cx="220.792" cy="124.57" r="14.986" fill="none" stroke="#000" stroke-width="2" transform="translate(480.302 224.844)"/>
  <circle cx="220.792" cy="124.57" r="14.986" transform="matrix(.66728 0 0 .66728 553.779 266.305)"/>
  <circle cx="220.792" cy="124.57" r="14.986" fill="none" stroke="#000" stroke-width="2" transform="translate(345.455 -4.488)"/>
  <circle cx="220.792" cy="124.57" r="14.986" transform="matrix(.66728 0 0 .66728 418.932 36.973)"/>
  <circle cx="220.792" cy="124.57" r="14.986" fill="none" stroke="#000" stroke-width="2" transform="translate(292.909 369.53)"/>
  <circle cx="220.792" cy="124.57" r="14.986" transform="matrix(.66728 0 0 .66728 366.386 410.99)"/>
  <circle cx="220.792" cy="124.57" r="14.986" fill="none" stroke="#000" stroke-width="2" transform="translate(380.397 369.53)"/>
  <circle cx="220.792" cy="124.57" r="14.986" transform="matrix(.66728 0 0 .66728 453.874 410.99)"/>
  <circle cx="220.792" cy="124.57" r="14.986" fill="none" stroke="#000" stroke-width="2" transform="translate(467.885 369.53)"/>
  <circle cx="220.792" cy="124.57" r="14.986" transform="matrix(.66728 0 0 .66728 541.362 410.99)"/>
  <circle cx="220.792" cy="124.57" r="14.986" fill="none" stroke="#000" stroke-width="2" transform="translate(293.223 412.84)"/>
  <circle cx="220.792" cy="124.57" r="14.986" transform="matrix(.66728 0 0 .66728 366.7 454.302)"/>
  <circle cx="220.792" cy="124.57" r="14.986" fill="none" stroke="#000" stroke-width="2" transform="translate(380.711 412.84)"/>
  <circle cx="220.792" cy="124.57" r="14.986" transform="matrix(.66728 0 0 .66728 454.188 454.302)"/>
  <circle cx="220.792" cy="124.57" r="14.986" fill="none" stroke="#000" stroke-width="2" transform="translate(468.199 412.84)"/>
  <circle cx="220.792" cy="124.57" r="14.986" transform="matrix(.66728 0 0 .66728 541.676 454.302)"/>
  <circle cx="220.792" cy="124.57" r="14.986" fill="none" stroke="#000" stroke-width="2" transform="translate(292.909 456.567)"/>
  <circle cx="220.792" cy="124.57" r="14.986" transform="matrix(.66728 0 0 .66728 366.386 498.028)"/>
  <circle cx="220.792" cy="124.57" r="14.986" fill="none" stroke="#000" stroke-width="2" transform="translate(380.397 456.567)"/>
  <circle cx="220.792" cy="124.57" r="14.986" transform="matrix(.66728 0 0 .66728 453.874 498.028)"/>
  <circle cx="220.792" cy="124.57" r="14.986" fill="none" stroke="#000" stroke-width="2" transform="translate(467.885 456.567)"/>
  <circle cx="220.792" cy="124.57" r="14.986" transform="matrix(.66728 0 0 .66728 541.362 498.028)"/>
  <circle cx="220.792" cy="124.57" r="14.986" fill="none" stroke="#000" stroke-width="2" transform="translate(292.909 500.65)"/>
  <circle cx="220.792" cy="124.57" r="14.986" transform="matrix(.66728 0 0 .66728 366.386 542.11)"/>
  <circle cx="220.792" cy="124.57" r="14.986" fill="none" stroke="#000" stroke-width="2" transform="translate(380.397 500.65)"/>
  <circle cx="220.792" cy="124.57" r="14.986" transform="matrix(.66728 0 0 .66728 453.874 542.11)"/>
  <circle cx="220.792" cy="124.57" r="14.986" fill="none" stroke="#000" stroke-width="2" transform="translate(467.885 500.65)"/>
  <circle cx="220.792" cy="124.57" r="14.986" transform="matrix(.66728 0 0 .66728 541.362 542.11)"/>
  <path d="M614.593 174.788l36.883-14.776v161.044M614.593 174.788l-83.39-39.325 35.045-15.368M614.593 174.788v164.586l-83.39-48.027" fill="none" stroke="#8c8c8c" stroke-width="5"/>
  <g>
    <path d="M69.724-25.499c12.235 2.089 22.949 3.128 22.696 10.49-.227 6.584-13.951 6.832-22.696 10.406C57.602.35 49.931 1.544 47.029 5.704" fill="none" stroke="#000" stroke-width="1.24" stroke-dasharray="1.24,1.86,0,0" transform="matrix(3.85485 0 0 -4.20219 332.426 518.081)"/>
  </g>
  <g>
    <path d="M92.42 5.704c9.672-3.374 6.953-10.059.031-10.578-10.09-.756-14.79-1.121-22.711-10.135-8.527-9.701-19.809-14.65-22.711-10.49" fill="none" stroke="#000" stroke-width="1.24" stroke-dasharray="1.24,1.86,0,0" transform="matrix(3.85485 0 0 -4.20219 332.426 518.081)"/>
  </g>
  <g>
    <path d="M303.995 545.295c0-5.672-2.31-11.111-6.421-15.122-4.112-4.01-9.689-6.263-15.503-6.263H158.389c-5.815 0-11.392 2.253-15.503 6.263-4.112 4.011-6.422 9.45-6.422 15.122v60.595c0 5.672 2.31 11.111 6.422 15.122 4.111 4.01 9.688 6.263 15.503 6.263h123.682c5.814 0 11.391-2.253 15.503-6.263 4.111-4.011 6.421-9.45 6.421-15.122v-60.595z" fill="none" stroke="red" stroke-width="2.16" stroke-linejoin="miter" stroke-miterlimit="20" transform="matrix(.9133 0 0 .93635 -49.03 -28.003)"/>
  </g>
  <g>
    <circle cx="220.792" cy="124.57" r="14.986" fill="none" stroke="#000" stroke-width="2" transform="translate(-68.686 337.992)"/>
    <circle cx="220.792" cy="124.57" r="14.986" transform="matrix(.66728 0 0 .66728 4.791 379.453)"/>
  </g>
  <g>
    <circle cx="220.792" cy="124.57" r="14.986" fill="none" stroke="#000" stroke-width="2" transform="translate(-117.742 367.326)"/>
    <circle cx="220.792" cy="124.57" r="14.986" transform="matrix(.66728 0 0 .66728 -44.266 408.787)"/>
  </g>
  <g>
    <circle cx="220.792" cy="124.57" r="14.986" fill="none" stroke="#000" stroke-width="2" transform="translate(-19.629 367.326)"/>
    <circle cx="220.792" cy="124.57" r="14.986" transform="matrix(.66728 0 0 .66728 53.848 408.787)"/>
  </g>
  <g>
    <circle cx="220.792" cy="124.57" r="14.986" fill="none" stroke="#000" stroke-width="2" transform="translate(-117.742 404.779)"/>
    <circle cx="220.792" cy="124.57" r="14.986" transform="matrix(.66728 0 0 .66728 -44.266 446.24)"/>
  </g>
  <g>
    <circle cx="220.792" cy="124.57" r="14.986" fill="none" stroke="#000" stroke-width="2" transform="translate(-19.629 404.779)"/>
    <circle cx="220.792" cy="124.57" r="14.986" transform="matrix(.66728 0 0 .66728 53.848 446.24)"/>
  </g>
  <g>
    <path d="M307.302 619.518v-46.339" fill="none" stroke="#00ff01" stroke-width="5"/>
  </g>
  <g>
    <path d="M405.415 619.518v-46.339" fill="none" stroke="#0100ff" stroke-width="5"/>
  </g>
  <g>
    <path d="M303.995 558.509c0-9.176-2.31-17.977-6.421-24.465-4.112-6.489-9.689-10.134-15.503-10.134H158.389c-5.815 0-11.392 3.645-15.503 10.134-4.112 6.488-6.422 15.289-6.422 24.465v34.167c0 9.176 2.31 17.977 6.422 24.465 4.111 6.489 9.688 10.134 15.503 10.134h123.682c5.814 0 11.391-3.645 15.503-10.134 4.111-6.488 6.421-15.289 6.421-24.465v-34.167z" fill="none" stroke="red" stroke-width="2.62" stroke-linejoin="miter" stroke-miterlimit="20" transform="matrix(.9133 0 0 .57874 155.223 262.416)"/>
  </g>
  <g>
    <circle cx="220.792" cy="124.57" r="14.986" fill="none" stroke="#000" stroke-width="2" transform="translate(135.566 441.052)"/>
    <circle cx="220.792" cy="124.57" r="14.986" transform="matrix(.66728 0 0 .66728 209.043 482.513)"/>
  </g>
  <g>
    <circle cx="220.792" cy="124.57" r="14.986" fill="none" stroke="#000" stroke-width="2" transform="translate(86.51 470.387)"/>
    <circle cx="220.792" cy="124.57" r="14.986" transform="matrix(.66728 0 0 .66728 159.987 511.848)"/>
  </g>
  <g>
    <circle cx="220.792" cy="124.57" r="14.986" fill="none" stroke="#000" stroke-width="2" transform="translate(184.623 470.387)"/>
    <circle cx="220.792" cy="124.57" r="14.986" transform="matrix(.66728 0 0 .66728 258.1 511.848)"/>
  </g>
  <g>
    <path d="M121.893 673.853v-46.339" fill="none" stroke="#00ff01" stroke-width="5"/>
  </g>
  <g>
    <path d="M220.006 673.853v-46.339" fill="none" stroke="#0100ff" stroke-width="5"/>
  </g>
  <g>
    <path d="M303.995 558.509c0-9.176-2.31-17.977-6.421-24.465-4.112-6.489-9.689-10.134-15.503-10.134H158.389c-5.815 0-11.392 3.645-15.503 10.134-4.112 6.488-6.422 15.289-6.422 24.465v34.167c0 9.176 2.31 17.977 6.422 24.465 4.111 6.489 9.688 10.134 15.503 10.134h123.682c5.814 0 11.391-3.645 15.503-10.134 4.111-6.488 6.421-15.289 6.421-24.465v-34.167z" fill="none" stroke="red" stroke-width="2.62" stroke-linejoin="miter" stroke-miterlimit="20" transform="matrix(.9133 0 0 .57874 -30.186 316.75)"/>
  </g>
  <g>
    <circle cx="220.792" cy="124.57" r="14.986" fill="none" stroke="#000" stroke-width="2" transform="translate(-49.843 495.387)"/>
    <circle cx="220.792" cy="124.57" r="14.986" transform="matrix(.66728 0 0 .66728 23.634 536.848)"/>
  </g>
  <g>
    <circle cx="220.792" cy="124.57" r="14.986" fill="none" stroke="#000" stroke-width="2" transform="translate(-98.9 524.72)"/>
    <circle cx="220.792" cy="124.57" r="14.986" transform="matrix(.66728 0 0 .66728 -25.423 566.182)"/>
  </g>
  <g>
    <circle cx="220.792" cy="124.57" r="14.986" fill="none" stroke="#000" stroke-width="2" transform="translate(-.786 524.72)"/>
    <circle cx="220.792" cy="124.57" r="14.986" transform="matrix(.66728 0 0 .66728 72.69 566.182)"/>
  </g>
  <g>
    <path d="M82.636-30.579C76.905-17.38 69.692-12.798 42.377-13.02" fill="none" stroke="#000" stroke-width="1.24" stroke-dasharray="1.24,1.86,0,0" transform="matrix(3.85485 0 0 -4.20219 37.822 437.183)"/>
  </g>
  <g>
    <path d="M34.535-43.495C-3.033-29.606 4.127-21.818 16.819-13.02" fill="none" stroke="#000" stroke-width="1.24" stroke-dasharray="1.24,1.86,0,0" transform="matrix(3.85485 0 0 -4.20219 37.822 437.183)"/>
  </g>
  <g>
    <path d="M34.535-43.495c8.029 6.039 19.581 11.705 7.842 21.559" fill="none" stroke="#000" stroke-width="1.24" stroke-dasharray="1.24,1.86,0,0" transform="matrix(3.85485 0 0 -4.20219 37.822 437.183)"/>
  </g>
  <g>
    <text font-family="Helvetica" font-size="20" transform="translate(118.577 392.549)">
      Hypergraph
    </text>
  </g>
  <g>
    <text font-family="Helvetica" font-size="20" transform="translate(541.242 392.549)">
      Voxel
    </text>
  </g>
  <g>
    <text font-family="Helvetica" font-size="20" transform="translate(186.821 720.744)">
      Aggregated
    </text>
  </g>
  <g>
    <text font-family="Helvetica" font-size="20" transform="translate(575.206 705.494)">
      Table
    </text>
  </g>
</svg>
